<?xml version="1.0" encoding="UTF-8"?>
<svg xmlns="http://www.w3.org/2000/svg" version="1.1" width="400" height="400" viewBox="0 0 400 400"><rect x="0" y="0" width="400" height="400" fill="#ffffff"/><g transform="scale(19.048)"><g transform="translate(0,0)"><path fill-rule="evenodd" d="M8 0L8 1L9 1L9 2L8 2L8 5L11 5L11 4L12 4L12 3L13 3L13 0L12 0L12 3L11 3L11 2L10 2L10 0ZM9 2L9 4L11 4L11 3L10 3L10 2ZM8 6L8 7L9 7L9 8L8 8L8 9L7 9L7 8L6 8L6 9L4 9L4 8L0 8L0 9L4 9L4 10L3 10L3 11L4 11L4 10L6 10L6 11L7 11L7 12L6 12L6 13L7 13L7 12L8 12L8 14L9 14L9 17L8 17L8 21L9 21L9 19L10 19L10 21L13 21L13 19L14 19L14 20L15 20L15 21L17 21L17 19L18 19L18 18L17 18L17 19L16 19L16 20L15 20L15 19L14 19L14 17L16 17L16 15L17 15L17 16L18 16L18 17L19 17L19 18L20 18L20 17L19 17L19 15L17 15L17 13L16 13L16 14L14 14L14 13L13 13L13 15L11 15L11 17L12 17L12 16L14 16L14 17L13 17L13 19L12 19L12 18L10 18L10 14L11 14L11 13L12 13L12 12L14 12L14 11L15 11L15 12L16 12L16 10L17 10L17 12L18 12L18 11L20 11L20 12L19 12L19 13L20 13L20 12L21 12L21 8L20 8L20 10L19 10L19 8L16 8L16 9L14 9L14 8L13 8L13 9L12 9L12 12L11 12L11 13L10 13L10 14L9 14L9 12L10 12L10 10L11 10L11 6L10 6L10 7L9 7L9 6ZM12 6L12 7L13 7L13 6ZM9 8L9 9L10 9L10 8ZM6 9L6 10L7 10L7 11L8 11L8 12L9 12L9 10L7 10L7 9ZM13 9L13 11L14 11L14 9ZM0 10L0 11L2 11L2 10ZM2 12L2 13L5 13L5 12ZM20 19L20 20L21 20L21 19ZM18 20L18 21L19 21L19 20ZM0 0L0 7L7 7L7 0ZM1 1L1 6L6 6L6 1ZM2 2L2 5L5 5L5 2ZM14 0L14 7L21 7L21 0ZM15 1L15 6L20 6L20 1ZM16 2L16 5L19 5L19 2ZM0 14L0 21L7 21L7 14ZM1 15L1 20L6 20L6 15ZM2 16L2 19L5 19L5 16Z" fill="#000000"/></g></g></svg>
