<?xml version="1.0" encoding="UTF-8"?>
<svg xmlns="http://www.w3.org/2000/svg" version="1.1" width="400" height="400" viewBox="0 0 400 400"><rect x="0" y="0" width="400" height="400" fill="#ffffff"/><g transform="scale(19.048)"><g transform="translate(0,0)"><path fill-rule="evenodd" d="M8 0L8 1L9 1L9 0ZM10 0L10 2L8 2L8 5L9 5L9 6L8 6L8 7L9 7L9 6L10 6L10 7L11 7L11 8L8 8L8 9L11 9L11 10L12 10L12 9L11 9L11 8L13 8L13 11L12 11L12 12L11 12L11 11L10 11L10 12L11 12L11 13L8 13L8 12L9 12L9 10L8 10L8 12L5 12L5 10L6 10L6 11L7 11L7 10L6 10L6 9L7 9L7 8L6 8L6 9L4 9L4 8L0 8L0 9L1 9L1 10L3 10L3 11L2 11L2 12L1 12L1 13L4 13L4 12L5 12L5 13L8 13L8 14L9 14L9 15L10 15L10 16L9 16L9 17L8 17L8 21L9 21L9 17L10 17L10 18L11 18L11 19L13 19L13 20L12 20L12 21L15 21L15 20L16 20L16 21L17 21L17 20L16 20L16 19L13 19L13 17L14 17L14 15L15 15L15 16L16 16L16 15L17 15L17 16L18 16L18 17L19 17L19 18L20 18L20 16L21 16L21 15L19 15L19 13L21 13L21 12L19 12L19 13L18 13L18 15L17 15L17 11L16 11L16 10L17 10L17 9L18 9L18 11L21 11L21 8L20 8L20 9L19 9L19 8L16 8L16 9L15 9L15 10L14 10L14 8L13 8L13 6L12 6L12 5L13 5L13 4L12 4L12 3L13 3L13 2L12 2L12 1L13 1L13 0L12 0L12 1L11 1L11 0ZM10 2L10 4L9 4L9 5L11 5L11 2ZM11 6L11 7L12 7L12 6ZM3 9L3 10L4 10L4 9ZM13 11L13 12L12 12L12 13L14 13L14 14L16 14L16 13L14 13L14 12L15 12L15 11ZM11 14L11 15L13 15L13 14ZM12 16L12 17L11 17L11 18L12 18L12 17L13 17L13 16ZM15 17L15 18L16 18L16 17ZM17 18L17 19L18 19L18 18ZM20 19L20 20L21 20L21 19ZM18 20L18 21L19 21L19 20ZM0 0L0 7L7 7L7 0ZM1 1L1 6L6 6L6 1ZM2 2L2 5L5 5L5 2ZM14 0L14 7L21 7L21 0ZM15 1L15 6L20 6L20 1ZM16 2L16 5L19 5L19 2ZM0 14L0 21L7 21L7 14ZM1 15L1 20L6 20L6 15ZM2 16L2 19L5 19L5 16Z" fill="#000000"/></g></g></svg>
